<svg width="138" height="22" viewBox="0 0 138 22" fill="none" xmlns="http://www.w3.org/2000/svg">
<path d="M12.0083 15.592H5.02434L3.82434 19H0.968344L6.94434 2.296H10.1123L16.0883 19H13.2083L12.0083 15.592ZM11.2403 13.36L8.52834 5.608L5.79234 13.36H11.2403ZM17.7747 12.376C17.7747 11.016 18.0467 9.824 18.5907 8.8C19.1507 7.76 19.9187 6.96 20.8947 6.4C21.8707 5.84 22.9907 5.56 24.2547 5.56C25.8547 5.56 27.1747 5.944 28.2147 6.712C29.2707 7.464 29.9827 8.544 30.3507 9.952H27.3987C27.1587 9.296 26.7747 8.784 26.2467 8.416C25.7187 8.048 25.0547 7.864 24.2547 7.864C23.1347 7.864 22.2387 8.264 21.5667 9.064C20.9107 9.848 20.5827 10.952 20.5827 12.376C20.5827 13.8 20.9107 14.912 21.5667 15.712C22.2387 16.512 23.1347 16.912 24.2547 16.912C25.8387 16.912 26.8867 16.216 27.3987 14.824H30.3507C29.9667 16.168 29.2467 17.24 28.1907 18.04C27.1347 18.824 25.8227 19.216 24.2547 19.216C22.9907 19.216 21.8707 18.936 20.8947 18.376C19.9187 17.8 19.1507 17 18.5907 15.976C18.0467 14.936 17.7747 13.736 17.7747 12.376ZM36.2693 8.008V15.328C36.2693 15.824 36.3813 16.184 36.6053 16.408C36.8453 16.616 37.2453 16.72 37.8053 16.72H39.4853V19H37.3253C36.0933 19 35.1493 18.712 34.4933 18.136C33.8373 17.56 33.5093 16.624 33.5093 15.328V8.008H31.9493V5.776H33.5093V2.488H36.2693V5.776H39.4853V8.008H36.2693ZM43.399 4.024C42.903 4.024 42.487 3.856 42.151 3.52C41.815 3.184 41.647 2.768 41.647 2.272C41.647 1.776 41.815 1.36 42.151 1.024C42.487 0.687999 42.903 0.519999 43.399 0.519999C43.879 0.519999 44.287 0.687999 44.623 1.024C44.959 1.36 45.127 1.776 45.127 2.272C45.127 2.768 44.959 3.184 44.623 3.52C44.287 3.856 43.879 4.024 43.399 4.024ZM44.743 5.776V19H42.007V5.776H44.743ZM54.0712 19.216C52.8232 19.216 51.6952 18.936 50.6872 18.376C49.6792 17.8 48.8872 17 48.3112 15.976C47.7352 14.936 47.4472 13.736 47.4472 12.376C47.4472 11.032 47.7432 9.84 48.3352 8.8C48.9272 7.76 49.7352 6.96 50.7592 6.4C51.7832 5.84 52.9272 5.56 54.1912 5.56C55.4552 5.56 56.5992 5.84 57.6232 6.4C58.6472 6.96 59.4552 7.76 60.0472 8.8C60.6392 9.84 60.9352 11.032 60.9352 12.376C60.9352 13.72 60.6312 14.912 60.0232 15.952C59.4152 16.992 58.5832 17.8 57.5272 18.376C56.4872 18.936 55.3352 19.216 54.0712 19.216ZM54.0712 16.84C54.7752 16.84 55.4312 16.672 56.0392 16.336C56.6632 16 57.1672 15.496 57.5512 14.824C57.9352 14.152 58.1272 13.336 58.1272 12.376C58.1272 11.416 57.9432 10.608 57.5752 9.952C57.2072 9.28 56.7192 8.776 56.1112 8.44C55.5032 8.104 54.8472 7.936 54.1432 7.936C53.4392 7.936 52.7832 8.104 52.1752 8.44C51.5832 8.776 51.1112 9.28 50.7592 9.952C50.4072 10.608 50.2312 11.416 50.2312 12.376C50.2312 13.8 50.5912 14.904 51.3112 15.688C52.0472 16.456 52.9672 16.84 54.0712 16.84ZM70.3118 5.56C71.3518 5.56 72.2798 5.776 73.0958 6.208C73.9278 6.64 74.5758 7.28 75.0398 8.128C75.5038 8.976 75.7358 10 75.7358 11.2V19H73.0238V11.608C73.0238 10.424 72.7278 9.52 72.1358 8.896C71.5438 8.256 70.7358 7.936 69.7118 7.936C68.6878 7.936 67.8718 8.256 67.2638 8.896C66.6718 9.52 66.3758 10.424 66.3758 11.608V19H63.6398V5.776H66.3758V7.288C66.8238 6.744 67.3918 6.32 68.0798 6.016C68.7838 5.712 69.5278 5.56 70.3118 5.56Z" fill="#3A187B"/>
<path d="M90.8898 7.288C90.8898 8.136 90.6898 8.936 90.2898 9.688C89.8898 10.44 89.2498 11.056 88.3698 11.536C87.4898 12 86.3618 12.232 84.9858 12.232H81.9618V19H79.2258V2.32H84.9858C86.2658 2.32 87.3458 2.544 88.2258 2.992C89.1218 3.424 89.7858 4.016 90.2178 4.768C90.6658 5.52 90.8898 6.36 90.8898 7.288ZM84.9858 10C86.0258 10 86.8018 9.768 87.3138 9.304C87.8258 8.824 88.0818 8.152 88.0818 7.288C88.0818 5.464 87.0498 4.552 84.9858 4.552H81.9618V10H84.9858ZM99.2352 19.216C97.9872 19.216 96.8592 18.936 95.8512 18.376C94.8432 17.8 94.0512 17 93.4752 15.976C92.8992 14.936 92.6112 13.736 92.6112 12.376C92.6112 11.032 92.9072 9.84 93.4992 8.8C94.0912 7.76 94.8992 6.96 95.9232 6.4C96.9472 5.84 98.0912 5.56 99.3552 5.56C100.619 5.56 101.763 5.84 102.787 6.4C103.811 6.96 104.619 7.76 105.211 8.8C105.803 9.84 106.099 11.032 106.099 12.376C106.099 13.72 105.795 14.912 105.187 15.952C104.579 16.992 103.747 17.8 102.691 18.376C101.651 18.936 100.499 19.216 99.2352 19.216ZM99.2352 16.84C99.9392 16.84 100.595 16.672 101.203 16.336C101.827 16 102.331 15.496 102.715 14.824C103.099 14.152 103.291 13.336 103.291 12.376C103.291 11.416 103.107 10.608 102.739 9.952C102.371 9.28 101.883 8.776 101.275 8.44C100.667 8.104 100.011 7.936 99.3072 7.936C98.6032 7.936 97.9472 8.104 97.3392 8.44C96.7472 8.776 96.2752 9.28 95.9232 9.952C95.5712 10.608 95.3952 11.416 95.3952 12.376C95.3952 13.8 95.7552 14.904 96.4752 15.688C97.2112 16.456 98.1312 16.84 99.2352 16.84ZM110.196 4.024C109.7 4.024 109.284 3.856 108.948 3.52C108.612 3.184 108.444 2.768 108.444 2.272C108.444 1.776 108.612 1.36 108.948 1.024C109.284 0.687999 109.7 0.519999 110.196 0.519999C110.676 0.519999 111.084 0.687999 111.42 1.024C111.756 1.36 111.924 1.776 111.924 2.272C111.924 2.768 111.756 3.184 111.42 3.52C111.084 3.856 110.676 4.024 110.196 4.024ZM111.54 5.776V19H108.804V5.776H111.54ZM121.804 5.56C122.844 5.56 123.772 5.776 124.588 6.208C125.42 6.64 126.068 7.28 126.532 8.128C126.996 8.976 127.228 10 127.228 11.2V19H124.516V11.608C124.516 10.424 124.22 9.52 123.628 8.896C123.036 8.256 122.228 7.936 121.204 7.936C120.18 7.936 119.364 8.256 118.756 8.896C118.164 9.52 117.868 10.424 117.868 11.608V19H115.132V5.776H117.868V7.288C118.316 6.744 118.884 6.32 119.572 6.016C120.276 5.712 121.02 5.56 121.804 5.56ZM133.91 8.008V15.328C133.91 15.824 134.022 16.184 134.246 16.408C134.486 16.616 134.886 16.72 135.446 16.72H137.126V19H134.966C133.734 19 132.79 18.712 132.134 18.136C131.478 17.56 131.15 16.624 131.15 15.328V8.008H129.59V5.776H131.15V2.488H133.91V5.776H137.126V8.008H133.91Z" fill="#131313"/>
<circle cx="99.5" cy="12.5" r="2.5" fill="#3A187B"/>
</svg>
