<svg width="54" height="40" viewBox="0 0 54 40" fill="none" xmlns="http://www.w3.org/2000/svg">
<g clip-path="url(#clip0_66_207)">
<path fill-rule="evenodd" clip-rule="evenodd" d="M0 0H76V3.07812H0V0ZM0 6.15625H76V9.23438H0V6.15625ZM0 12.3047H76V15.3906H0V12.3047ZM0 18.4609H76V21.5391H0V18.4609ZM0 24.6172H76V27.6953H0V24.6172ZM0 30.7656H76V33.8438H0V30.7656ZM0 36.9219H76V40H0V36.9219Z" fill="#BD3D44"/>
<path fill-rule="evenodd" clip-rule="evenodd" d="M0 3.07812H76V6.15625H0V3.07812ZM0 9.23437H76V12.3047H0V9.23437ZM0 15.3828H76V18.4609H0V15.3828ZM0 21.5391H76V24.6172H0V21.5391ZM0 27.6953H76V30.7734H0V27.6953ZM0 33.8438H76V36.9219H0V33.8438Z" fill="white"/>
<path fill-rule="evenodd" clip-rule="evenodd" d="M0 0H30.3984V21.5391H0V0Z" fill="#192F5D"/>
<path fill-rule="evenodd" clip-rule="evenodd" d="M2.53125 0.921875L2.8125 1.77344H3.70313L2.98438 2.29687L3.25781 3.15625L2.53125 2.625L1.8125 3.14844L2.08594 2.29687L1.35938 1.77344H2.26562L2.53125 0.921875ZM7.60156 0.921875L7.875 1.77344H8.77344L8.04688 2.29687L8.32031 3.15625L7.60156 2.625L6.875 3.14844L7.14844 2.29687L6.42969 1.77344H7.32031L7.60156 0.921875ZM12.6641 0.921875L12.9453 1.77344H13.8281L13.1094 2.29687L13.3828 3.15625L12.6562 2.625L11.9375 3.14844L12.2109 2.29687L11.4844 1.77344H12.3828L12.6641 0.921875ZM17.7344 0.921875L18.0078 1.77344H18.9062L18.1797 2.29687L18.4609 3.15625L17.7344 2.625L17.0078 3.14844L17.2891 2.29687L16.5625 1.77344H17.4531L17.7344 0.921875ZM22.7969 0.921875L23.0781 1.77344H23.9688L23.25 2.29687L23.5234 3.15625L22.7969 2.625L22.0781 3.14844L22.3516 2.29687L21.6328 1.77344H22.5234L22.7969 0.921875ZM27.8672 0.921875L28.1406 1.77344H29.0391L28.3125 2.29687L28.5938 3.15625L27.8672 2.625L27.1406 3.14844L27.4219 2.29687L26.6953 1.77344H27.5938L27.8672 0.921875ZM5.07031 3.07812L5.34375 3.92969H6.24219L5.51562 4.45312L5.78125 5.30469L5.07812 4.78125L4.35156 5.30469L4.60938 4.45312L3.90625 3.92969H4.79688L5.07031 3.07812ZM10.1328 3.07812L10.4141 3.92969H11.3047L10.5781 4.45312L10.8594 5.30469L10.1328 4.78125L9.40625 5.30469L9.6875 4.45312L8.96094 3.92969H9.85938L10.1328 3.07812ZM15.2031 3.07812L15.4766 3.92969H16.375L15.6484 4.45312L15.9219 5.30469L15.2031 4.78125L14.4766 5.30469L14.75 4.45312L14.0313 3.92969H14.9219L15.2031 3.07812ZM20.2656 3.07812L20.5469 3.92969H21.4375L20.7109 4.45312L20.9922 5.30469L20.2656 4.78125L19.5469 5.30469L19.8203 4.45312L19.0938 3.92969H20L20.2656 3.07812ZM25.3359 3.07812L25.6094 3.92969H26.5078L25.7812 4.45312L26.0547 5.30469L25.3359 4.78125L24.6094 5.30469L24.8828 4.45312L24.1641 3.92969H25.0547L25.3359 3.07812ZM2.53125 5.22656L2.8125 6.09375H3.70313L2.98438 6.61719L3.25781 7.46875L2.53125 6.9375L1.8125 7.46875L2.08594 6.60937L1.35938 6.08594H2.26562L2.53125 5.22656ZM7.60156 5.22656L7.875 6.08594H8.77344L8.04688 6.60937L8.32031 7.46094L7.60156 6.92969L6.875 7.46094L7.14844 6.60156L6.42969 6.07812H7.32031L7.60156 5.22656ZM12.6641 5.22656L12.9453 6.08594H13.8281L13.1094 6.60937L13.3828 7.46094L12.6562 6.92969L11.9375 7.46094L12.2109 6.60156L11.4844 6.07812H12.3828L12.6641 5.22656ZM17.7344 5.22656L18.0078 6.08594H18.9062L18.1797 6.60937L18.4609 7.46094L17.7344 6.92969L17.0078 7.46094L17.2891 6.60156L16.5625 6.07812H17.4531L17.7344 5.22656ZM22.7969 5.22656L23.0781 6.08594H23.9688L23.25 6.60937L23.5234 7.46094L22.7969 6.92969L22.0781 7.46094L22.3516 6.60156L21.6328 6.07812H22.5234L22.7969 5.22656ZM27.8672 5.22656L28.1406 6.08594H29.0391L28.3125 6.60937L28.5938 7.46094L27.8672 6.92969L27.1406 7.46094L27.4219 6.60156L26.6953 6.07812H27.5938L27.8672 5.22656ZM5.07031 7.38281L5.34375 8.23437H6.24219L5.51562 8.75781L5.78906 9.61719L5.07031 9.08594L4.34375 9.60937L4.61719 8.75781L3.89844 8.23437H4.78906L5.07031 7.38281ZM10.1328 7.38281L10.4141 8.23437H11.3047L10.5781 8.75781L10.8594 9.61719L10.1328 9.08594L9.40625 9.60937L9.6875 8.75781L8.96094 8.23437H9.85938L10.1328 7.38281ZM15.2031 7.38281L15.4766 8.23437H16.375L15.6484 8.75781L15.9219 9.61719L15.2031 9.08594L14.4766 9.60937L14.75 8.75781L14.0313 8.23437H14.9219L15.2031 7.38281ZM20.2656 7.38281L20.5469 8.23437H21.4375L20.7188 8.75781L20.9922 9.61719L20.2656 9.08594L19.5469 9.60937L19.8203 8.75781L19.0938 8.23437H20L20.2656 7.38281ZM25.3359 7.38281L25.6094 8.23437H26.5078L25.7812 8.75781L26.0547 9.61719L25.3359 9.08594L24.6094 9.60937L24.8828 8.75781L24.1641 8.23437H25.0547L25.3359 7.38281ZM2.53125 9.53906L2.8125 10.3906H3.70313L2.98438 10.9141L3.25781 11.7734L2.53125 11.2422L1.8125 11.7656L2.08594 10.9141L1.35938 10.3906H2.26562L2.53125 9.53906ZM7.60156 9.53906L7.875 10.3906H8.77344L8.04688 10.9141L8.32031 11.7656L7.60156 11.2422L6.875 11.7656L7.14844 10.9141L6.42969 10.3906H7.32031L7.60156 9.53906ZM12.6641 9.53906L12.9453 10.3906H13.8281L13.1094 10.9141L13.3828 11.7734L12.6562 11.2422L11.9375 11.7656L12.2109 10.9141L11.4844 10.3906H12.3828L12.6641 9.53906ZM17.7344 9.53906L18.0078 10.3906H18.9062L18.1797 10.9141L18.4609 11.7734L17.7344 11.2422L17.0078 11.7656L17.2891 10.9141L16.5625 10.3906H17.4531L17.7344 9.53906ZM22.7969 9.53906L23.0781 10.3906H23.9688L23.25 10.9141L23.5234 11.7734L22.7969 11.2422L22.0781 11.7656L22.3516 10.9141L21.6328 10.3906H22.5234L22.7969 9.53906ZM27.8672 9.53906L28.1406 10.3906H29.0391L28.3125 10.9141L28.5938 11.7734L27.8672 11.2422L27.1406 11.7656L27.4219 10.9141L26.6953 10.3906H27.5938L27.8672 9.53906ZM5.07031 11.6953L5.34375 12.5469H6.24219L5.51562 13.0703L5.78906 13.9219L5.07031 13.3906L4.34375 13.9219L4.61719 13.0625L3.89844 12.5391H4.78906L5.07031 11.6953ZM10.1328 11.6953L10.4141 12.5469H11.3047L10.5781 13.0703L10.8594 13.9219L10.1328 13.3906L9.40625 13.9219L9.6875 13.0625L8.96094 12.5391H9.85938L10.1328 11.6953ZM15.2031 11.6953L15.4766 12.5469H16.375L15.6484 13.0703L15.9219 13.9219L15.2031 13.3906L14.4766 13.9219L14.75 13.0625L14.0313 12.5391H14.9219L15.2031 11.6953ZM20.2656 11.6953L20.5469 12.5469H21.4375L20.7188 13.0703L20.9922 13.9219L20.2656 13.3906L19.5469 13.9219L19.8203 13.0625L19.0938 12.5391H20L20.2656 11.6953ZM25.3359 11.6953L25.6094 12.5469H26.5078L25.7812 13.0703L26.0547 13.9219L25.3359 13.3906L24.6094 13.9219L24.8828 13.0625L24.1641 12.5391H25.0547L25.3359 11.6953ZM2.53125 13.8437L2.8125 14.7031H3.70313L2.98438 15.2266L3.25781 16.0703L2.53125 15.5469L1.8125 16.0703L2.08594 15.2187L1.35938 14.6953H2.26562L2.53125 13.8437ZM7.60156 13.8437L7.875 14.7031H8.77344L8.04688 15.2266L8.32812 16.0703L7.60156 15.5469L6.875 16.0703L7.15625 15.2187L6.42969 14.6953H7.32031L7.60156 13.8437ZM12.6641 13.8437L12.9453 14.7031H13.8281L13.1094 15.2266L13.3828 16.0703L12.6562 15.5469L11.9375 16.0703L12.2109 15.2187L11.4844 14.6953H12.3828L12.6641 13.8437ZM17.7344 13.8437L18.0078 14.7031H18.9062L18.1797 15.2266L18.4609 16.0703L17.7344 15.5469L17.0078 16.0703L17.2891 15.2187L16.5625 14.6953H17.4531L17.7344 13.8437ZM22.7969 13.8437L23.0781 14.7031H23.9688L23.25 15.2266L23.5234 16.0703L22.7969 15.5469L22.0781 16.0703L22.3516 15.2187L21.6328 14.6953H22.5234L22.7969 13.8437ZM27.8672 13.8437L28.1406 14.7031H29.0391L28.3125 15.2266L28.5938 16.0703L27.8672 15.5469L27.1406 16.0703L27.4219 15.2187L26.6953 14.6953H27.5938L27.8672 13.8437ZM5.07031 16L5.34375 16.8516H6.24219L5.51562 17.375L5.78906 18.2344L5.07031 17.7031L4.34375 18.2266L4.61719 17.375L3.89844 16.8516H4.78906L5.07031 16ZM10.1328 16L10.4141 16.8516H11.3047L10.5781 17.375L10.8594 18.2344L10.1328 17.7031L9.40625 18.2266L9.6875 17.375L8.96094 16.8516H9.85938L10.1328 16ZM15.2031 16L15.4766 16.8516H16.375L15.6484 17.375L15.9219 18.2344L15.2031 17.7031L14.4766 18.2266L14.75 17.375L14.0313 16.8516H14.9219L15.2031 16ZM20.2656 16L20.5469 16.8516H21.4375L20.7188 17.375L20.9922 18.2344L20.2656 17.7031L19.5469 18.2266L19.8203 17.375L19.0938 16.8516H20L20.2656 16ZM25.3359 16L25.6094 16.8516H26.5078L25.7812 17.375L26.0547 18.2344L25.3359 17.7031L24.6094 18.2266L24.8828 17.375L24.1641 16.8516H25.0547L25.3359 16ZM2.53125 18.1562L2.8125 19.0078H3.70313L2.98438 19.5312L3.25781 20.3828L2.53125 19.8594L1.8125 20.3828L2.08594 19.5234L1.35938 19H2.26562L2.53125 18.1562ZM7.60156 18.1562L7.875 19.0078H8.77344L8.04688 19.5312L8.32812 20.3828L7.60156 19.8594L6.875 20.3828L7.15625 19.5234L6.42969 19H7.32031L7.60156 18.1562ZM12.6641 18.1562L12.9453 19.0078H13.8281L13.125 19.5312L13.3984 20.3828L12.6719 19.8594L11.9531 20.3828L12.2266 19.5234L11.5 19H12.3984L12.6641 18.1562ZM17.7344 18.1562L18.0078 19.0078H18.9062L18.1797 19.5312L18.4609 20.3828L17.7344 19.8594L17.0078 20.3828L17.2891 19.5234L16.5625 19H17.4531L17.7344 18.1562ZM22.7969 18.1562L23.0781 19.0078H23.9688L23.25 19.5312L23.5234 20.3828L22.7969 19.8594L22.0781 20.3828L22.3516 19.5234L21.6328 19H22.5234L22.7969 18.1562ZM27.8672 18.1562L28.1406 19.0078H29.0391L28.3125 19.5312L28.5938 20.3828L27.8672 19.8594L27.1406 20.3828L27.4219 19.5234L26.6953 19H27.5938L27.8672 18.1562Z" fill="white"/>
</g>
<defs>
<clipPath id="clip0_66_207">
<rect width="53.3333" height="40" fill="white"/>
</clipPath>
</defs>
</svg>
