<svg width="54" height="40" viewBox="0 0 54 40" fill="none" xmlns="http://www.w3.org/2000/svg">
<g clip-path="url(#clip0_66_167)">
<path fill-rule="evenodd" clip-rule="evenodd" d="M-3.33398 0H56.666V40H-3.33398V0Z" fill="#199D00"/>
<path fill-rule="evenodd" clip-rule="evenodd" d="M11.7837 11.3355C11.7212 12.273 11.6275 13.9136 12.4322 14.0855C13.3931 14.1793 12.8619 12.4605 13.2134 12.148C13.2759 11.9918 13.3931 11.9918 13.4009 12.1871V13.648C13.4009 14.1168 13.7134 14.2574 13.9478 14.3511C14.1978 14.3355 14.3697 14.3511 14.4634 14.5855L14.5884 17.109C14.5884 17.109 15.1666 17.2808 15.1978 15.6949C15.2212 14.7574 15.0103 13.984 15.1353 13.8043C15.1353 13.6246 15.3697 13.6168 15.5259 13.7027C15.7759 13.8746 15.8853 14.0933 16.2759 14.0152C16.8697 13.8433 17.2291 13.5543 17.2369 13.1011C17.2251 12.6558 17.1325 12.2164 16.9634 11.8043C16.9947 11.7261 16.8541 11.5152 16.8853 11.4371C16.9869 11.609 17.1509 11.5933 17.1822 11.4371C17.0806 11.109 16.9244 10.7886 16.6744 10.6558C16.4634 10.4683 16.1509 10.4996 16.0494 10.8902C15.9869 11.3355 16.2056 11.859 16.5259 12.2965C16.5962 12.4605 16.69 12.7418 16.6509 12.9918C16.4791 13.0933 16.3072 13.0465 16.1587 12.898C16.1587 12.898 15.69 12.5465 15.69 12.4605C15.815 11.6636 15.7134 11.5699 15.6431 11.3433C15.5962 11.0386 15.4478 10.9371 15.3306 10.734C15.2134 10.609 15.0572 10.609 14.9791 10.734C14.7681 11.0933 14.8697 11.8668 15.0181 12.2183C15.1275 12.5386 15.2916 12.7418 15.2134 12.7418C15.1509 12.9215 15.0181 12.8746 14.9166 12.6636C14.8022 12.2197 14.7471 11.7626 14.7525 11.3043C14.7134 10.9449 14.6666 10.1793 14.4244 9.97614C14.2837 9.78864 14.0728 9.88239 13.9947 10.0543C13.9741 10.4033 13.9819 10.7534 14.0181 11.1011C14.1744 11.6793 14.2291 12.1949 14.3072 12.7808C14.3306 13.5699 13.8541 13.1246 13.8775 12.7261C13.98 12.2252 13.972 11.708 13.8541 11.2105C13.7759 11.0074 13.69 10.9605 13.4947 10.9918C13.3462 10.9918 12.9634 11.4058 12.8541 12.109C12.8541 12.109 12.7603 12.4683 12.7212 12.7886C12.6666 13.148 12.4322 13.4136 12.2603 12.7418C12.1197 12.2496 12.0259 11.0543 11.7916 11.3355H11.7837Z" fill="white"/>
<path fill-rule="evenodd" clip-rule="evenodd" d="M14.4004 15.1719L11.9004 16.375C11.9238 15.8047 13.0801 14.7812 13.877 14.7734C14.3848 14.7812 14.2598 14.9687 14.3926 15.1719H14.4004Z" fill="white"/>
<path fill-rule="evenodd" clip-rule="evenodd" d="M13.9552 15.9535C12.6427 19.352 17.0411 19.8285 17.5333 16.0942C17.5802 15.9379 17.7677 15.7895 17.7989 16.0395C17.6974 19.4223 14.3927 19.6488 13.8302 18.5863C13.6979 18.2208 13.6317 17.8345 13.6349 17.4457C13.5568 16.7817 13.2052 17.0395 13.1505 17.6957C13.0958 18.0629 13.1114 18.1645 13.1114 18.516C13.2833 21.1879 17.5411 20.0395 18.2364 17.8363C18.6036 16.6176 18.1739 15.7192 18.3693 15.7192C18.7911 16.1723 19.3849 15.7817 19.5177 15.6254C19.5724 15.5473 19.713 15.4926 19.8068 15.5942C20.1349 15.8285 20.713 15.7192 20.838 15.3051C20.9083 14.891 20.963 14.4692 20.9786 14.0395C20.7052 14.1176 20.5099 14.1723 20.4864 14.2895L20.4318 14.6488C20.4083 14.766 20.1818 14.766 20.1661 14.6176C20.0646 14.1488 19.6427 14.0942 19.3849 14.8129C19.2208 14.9535 18.9083 14.9848 18.8771 14.7738C18.9161 14.2895 18.7208 14.227 18.3302 14.4535L17.9552 11.6254C18.1114 11.6254 18.2677 11.7426 18.4161 11.5551C18.2599 11.0473 17.9083 10.016 17.713 9.93791C17.6271 9.82853 17.5489 9.89885 17.4239 9.9301C17.2208 9.9926 17.0333 10.1645 17.0958 10.5082C17.3302 11.977 17.4864 13.0942 17.7286 14.5707C17.7677 14.7348 17.6271 14.9613 17.4396 14.9379C17.1271 14.727 17.0489 14.2973 16.5021 14.3129C16.1114 14.3129 15.6739 14.7426 15.6193 15.1488C15.5489 15.477 15.5255 15.8285 15.6193 16.1098C15.8927 16.4379 16.2208 16.4067 16.5099 16.3363C16.7443 16.2348 16.9396 16.0004 17.0255 16.0551C17.0802 16.1254 17.0333 16.9067 15.9083 17.5004C15.2286 17.8129 14.6818 17.8754 14.3927 17.3207C14.213 16.9692 14.4083 15.6488 13.9552 15.9535Z" fill="white"/>
<path fill-rule="evenodd" clip-rule="evenodd" d="M19.5568 12.5001C19.8146 12.4063 21.0646 10.9688 21.0646 10.9688L20.8771 10.8126C20.8068 10.7579 20.8146 10.6954 20.8771 10.6407C21.1896 10.4532 21.0881 10.0626 20.9318 9.87507C20.8257 9.82336 20.709 9.79713 20.591 9.79849C20.473 9.79985 20.357 9.82874 20.2521 9.88288C20.0334 10.0938 19.9865 10.4298 20.1584 10.6329C20.3224 10.711 20.4865 10.8829 20.3771 10.9766C19.8615 11.5235 18.4631 12.4688 18.6271 12.5001C18.6584 12.5469 19.5256 12.5469 19.549 12.5001H19.5568ZM11.9787 17.5782C11.5099 18.3282 11.4709 19.4454 11.7287 19.7813C11.8693 19.9376 12.0959 20.0079 12.2599 19.9532C12.5568 19.8282 12.6896 19.2266 12.6193 19.0157C12.5178 18.8594 12.4396 18.836 12.3381 18.961C12.1349 19.3829 12.049 19.0938 12.0256 18.8594C12.0032 18.4625 12.0241 18.0643 12.0881 17.6719C12.1428 17.3438 12.0881 17.4376 11.9787 17.5782ZM32.0646 16.3829C31.6115 15.3985 30.9787 14.4298 30.7834 14.0626C30.1746 13.1001 29.5282 12.1619 28.8459 11.2501C28.3615 10.6719 29.6427 11.4923 28.6896 10.336L27.9943 9.75007C27.8381 9.64069 27.4631 9.43757 27.4006 9.76569C27.3693 10.0626 27.3849 10.2188 27.4318 10.461C27.4709 10.6173 27.7052 10.8907 27.8224 11.0469C29.4241 13.1684 30.8309 15.4302 32.0256 17.8048C32.2287 17.7032 32.1818 16.5469 32.0646 16.3829Z" fill="white"/>
<path fill-rule="evenodd" clip-rule="evenodd" d="M30.0714 19.6482C29.9777 19.7498 30.2902 20.1795 30.6964 20.1795C31.3683 20.1013 31.9621 19.7263 32.5089 18.7263C32.7312 18.3937 32.8729 18.0139 32.923 17.617C32.9892 15.7204 32.8371 13.8225 32.4699 11.9607C32.4464 11.8045 32.4699 11.617 32.4855 11.5701C32.5324 11.5154 32.6808 11.5701 32.7589 11.4373C32.8761 11.3201 32.4464 10.3435 32.2121 9.97633C32.1339 9.80445 32.0949 9.69508 31.9542 9.99195C31.7845 10.3195 31.7037 10.6859 31.7199 11.0545C32.0402 13.281 32.1417 15.2263 32.3449 17.4529C32.3683 17.6716 32.3371 17.9841 32.1886 18.1091C31.5991 18.7655 30.8776 19.29 30.0714 19.6482ZM39.173 19.6404C38.6886 19.9216 38.6886 20.242 39.0792 20.2498C39.7511 20.1716 40.548 20.117 41.0949 19.2888C41.288 18.8988 41.3997 18.4735 41.423 18.0388C41.5213 16.1715 41.3981 14.299 41.0558 12.4607C41.0402 12.3045 40.9699 11.9373 40.9933 11.8904C41.0402 11.781 41.2589 11.8982 41.3371 11.7732C41.4464 11.656 40.7667 10.781 40.5246 10.406C40.4464 10.2341 40.4152 10.1248 40.2667 10.4216C40.1094 10.7522 40.0602 11.124 40.1261 11.4841C40.4855 13.906 40.7511 15.7185 40.8058 17.8591C40.7746 18.0623 40.7667 18.1716 40.673 18.4295C40.4621 18.6951 40.2277 19.0388 40.0089 19.2029C39.7902 19.3591 39.3214 19.5154 39.173 19.6404Z" fill="white"/>
<path fill-rule="evenodd" clip-rule="evenodd" d="M39.5339 17.4766C39.5339 16.9063 39.5417 16.4219 39.5261 15.9922C39.5211 15.6283 39.4413 15.2693 39.2917 14.9375C39.1511 14.6172 39.2371 14.3594 39.1667 14.0156C39.1042 13.6719 39.1199 13.1563 39.0261 12.7578C38.9949 12.6016 38.9167 12.0938 38.9402 12.0391C38.9792 11.9297 39.1277 12.0391 39.2058 11.9141C39.3152 11.7969 38.8152 10.5078 38.5652 10.1406C38.4792 9.97657 38.3074 10.0313 38.1121 10.2969C37.9167 10.4766 37.9871 10.875 38.0652 11.2578C38.5417 13.7813 38.9089 16.0703 38.8308 18.4688C38.7996 18.6719 39.5339 17.8594 39.5339 17.4766ZM35.9636 14.3516C35.6589 14.3359 35.0261 13.75 34.8386 13.4141C34.8079 13.332 34.7949 13.2443 34.8002 13.1568C34.8056 13.0694 34.8293 12.984 34.8699 12.9063C34.9871 12.8281 35.1589 12.75 35.2917 12.8281C35.2917 12.8281 35.4246 13.0156 35.4011 13.0391C35.5574 13.1172 35.6355 13.0781 35.6511 13.0078C35.6589 12.8906 35.6042 12.8203 35.6042 12.6953C35.6746 12.3359 36.073 12.2813 36.2292 12.5078C36.3386 12.6484 36.3855 12.9375 36.3933 13.1328C36.3933 13.2344 36.2371 13.1172 36.1355 13.1328C36.0496 13.1641 36.0261 13.2734 36.0183 13.3672C36.0027 13.625 35.9714 14.0391 35.9636 14.3438V14.3516ZM30.3542 18.1016C30.4324 17.3359 30.323 15.9688 30.3152 15.5156C30.2734 14.3503 30.1769 13.1876 30.0261 12.0313C29.9324 11.375 30.2917 12.1016 30.2449 11.7188C30.1277 11.0703 29.7683 10.625 29.3386 10.0391C29.2058 9.84376 29.2058 9.8047 28.9949 10.0859C28.7605 10.6094 28.9636 10.9766 29.0261 11.3906C29.3308 12.7344 29.5105 13.9688 29.5964 15.1953C29.6864 16.4695 29.6968 17.748 29.6277 19.0234C29.8621 19.0313 30.2214 18.6563 30.3542 18.1016Z" fill="white"/>
<path fill-rule="evenodd" clip-rule="evenodd" d="M40.5725 16.875C40.0334 15.9687 39.2287 15 39.01 14.6328C38.2855 13.6211 37.5246 12.6361 36.7287 11.6797C36.0646 10.9765 37.0412 11.5625 36.6037 11.0156C36.2365 10.6172 36.135 10.4843 35.8146 10.2422C35.6584 10.1406 35.5646 9.94528 35.5021 10.2812C35.4772 10.5722 35.472 10.8645 35.4865 11.1562C35.4865 11.289 35.6271 11.5468 35.7521 11.7031C37.3693 13.6953 39.1428 15.7265 40.5646 18.2812C40.7678 18.1797 40.6975 17.0312 40.5646 16.875H40.5725Z" fill="white"/>
<path fill-rule="evenodd" clip-rule="evenodd" d="M16.245 15.2112C16.2059 15.2815 16.12 15.3675 16.1512 15.4534C16.2059 15.5315 16.2606 15.555 16.3544 15.555C16.4403 15.555 16.5653 15.5784 16.5887 15.5315C16.6356 15.4769 16.6669 15.3753 16.6356 15.2737C16.5419 15.0394 16.2919 15.1331 16.245 15.2112Z" fill="#1BA400"/>
<path fill-rule="evenodd" clip-rule="evenodd" d="M34.3379 28.3201C35.0566 28.3514 35.5254 28.3592 36.1582 28.4295L36.9082 28.3514C37.7363 28.2732 37.7676 29.531 37.7676 29.531C37.7676 30.2732 37.4785 30.3123 37.1113 30.3904C36.9004 30.4217 36.7988 30.2654 36.6816 30.1092C36.505 30.1658 36.3168 30.1765 36.1348 30.1404C35.8301 30.1248 35.5332 30.1248 35.2363 30.1013C34.9238 30.0779 34.752 30.1404 34.4316 30.1092C34.3691 30.2107 34.2754 30.3514 34.0879 30.3123C33.9316 30.2889 33.7363 29.8435 33.791 29.492C33.9082 29.242 33.8691 29.3279 33.8691 29.2185C30.9316 29.1404 27.9707 29.0076 25.0957 29.0467C22.8457 29.0545 20.627 29.1482 18.4004 29.242C17.2129 29.2263 16.3066 29.0389 15.6816 28.1248C15.7441 28.1248 18.7129 28.2889 19.5801 28.2342C21.1816 28.2185 22.6504 28.0857 24.2832 28.0389C27.502 28.0935 30.6973 28.0935 33.916 28.3201C33.6035 28.1092 33.6035 27.617 34.0723 27.492C34.1113 27.4607 34.1348 27.7342 34.2051 27.7264C34.5879 27.7029 34.416 28.2185 34.3379 28.3201ZM21.4004 10.5701C20.916 11.9607 21.6816 13.492 22.2129 13.3435C22.6035 13.4998 22.8379 12.7654 22.9941 11.9685C23.1113 11.742 23.1895 11.7185 23.2441 11.8357C23.2285 12.8982 23.3223 13.1404 23.5957 13.4607C24.2051 13.9295 24.7129 13.5232 24.752 13.4842L25.2207 13.0076C25.3301 12.8904 25.4707 12.8904 25.6191 12.9842C25.7676 13.117 25.7441 13.3435 26.0566 13.4998C26.3223 13.6092 26.877 13.531 27.0098 13.3045C27.1816 12.9998 27.2285 12.8982 27.3066 12.7889C27.4316 12.6248 27.6426 12.6951 27.6426 12.7498C27.6191 12.8435 27.4941 12.9295 27.5801 13.1014C27.7363 13.2107 27.7676 13.1404 27.8535 13.117C28.166 12.9607 28.4004 12.2889 28.4004 12.2889C28.4082 12.0389 28.2676 12.0545 28.1738 12.117L27.9316 12.281C27.7754 12.3045 27.4863 12.406 27.3379 12.1795C27.1895 11.9139 27.1895 11.531 27.0801 11.2576C27.0801 11.242 26.877 10.8279 27.0645 10.8045C27.1582 10.8201 27.3535 10.8748 27.3848 10.7107C27.4785 10.5467 27.1816 10.0857 26.9707 9.85135C26.791 9.65604 26.541 9.6326 26.2988 9.83573C26.127 9.99198 26.1504 10.1639 26.1191 10.3279C26.0895 10.4455 26.0882 10.5684 26.1154 10.6866C26.1425 10.8047 26.1974 10.9148 26.2754 11.0076C26.4473 11.3357 26.752 11.7654 26.6504 12.3748C26.6504 12.3748 26.4707 12.656 26.1582 12.617C26.0254 12.5935 25.8145 12.5389 25.7051 11.6951C25.6191 11.0701 25.7207 10.1795 25.4551 9.76541C25.3535 9.5076 25.2832 9.26541 25.0488 9.6951C24.9863 9.86698 24.7129 10.1248 24.9082 10.6482C25.093 11.1199 25.147 11.6328 25.0645 12.1326C24.9473 12.3045 24.9238 12.3592 24.7754 12.5232C24.5723 12.7576 24.3457 12.6951 24.1738 12.6092C24.0176 12.5076 23.8926 12.4529 23.8145 12.1014C23.8301 11.5545 23.8613 10.656 23.7598 10.4685C23.6113 10.1717 23.3691 10.281 23.2676 10.3748C22.8028 10.8911 22.4917 11.527 22.3691 12.2107C22.2285 12.6639 22.0801 12.531 21.9785 12.3514C21.7285 12.117 21.7051 10.2654 21.4004 10.5701Z" fill="white"/>
<path fill-rule="evenodd" clip-rule="evenodd" d="M22.8699 13.6014C23.0964 13.4452 22.9949 13.3358 23.323 13.6639C23.7465 14.4133 23.9924 15.2499 24.0418 16.1092C24.0261 16.3124 24.1668 16.4374 24.2371 16.3905C24.2683 15.9217 25.4168 15.2655 26.4714 15.1717C26.6277 15.1327 26.5496 14.828 26.573 14.6717C26.5105 14.0858 26.9011 13.5545 27.448 13.5155C28.198 13.6249 28.448 14.0233 28.4636 14.6249C28.3777 15.7967 27.1589 15.992 26.4793 16.0858C26.3777 16.1249 26.3308 16.1717 26.4793 16.2264L29.3386 16.242L29.4871 16.3202C29.5027 16.3983 29.4402 16.3358 29.3308 16.5233C29.1735 16.7996 29.0751 17.1055 29.0418 17.4217C28.1902 17.703 27.3074 17.8124 26.4168 17.9295C26.1043 18.0858 25.948 18.2967 26.0105 18.5311C26.1199 18.7889 26.8074 19.0545 26.8074 19.0624C26.9402 19.1405 27.0886 19.3358 26.7683 19.7342C25.3777 19.6717 24.2918 19.078 23.9168 18.242C23.8074 18.1561 23.6824 18.242 23.6043 18.3514C23.0574 19.0545 22.5261 19.6795 21.5964 20.0233C21.0496 20.1639 20.4793 19.9374 20.2136 19.578C20.0339 19.367 20.0418 19.1405 19.9793 19.0936C19.6746 19.2264 17.0964 20.3202 17.4246 19.8045C18.0496 19.1405 19.1433 18.6405 20.0964 17.9842C20.1668 17.7577 20.2918 17.0077 20.6668 16.7655C20.6902 16.7655 20.6121 17.203 20.6199 17.3905C20.6199 17.5467 20.6043 17.6014 20.6355 17.5624C20.7058 17.5233 21.8621 16.6092 21.9636 16.328C22.073 16.1717 21.9871 15.7655 21.9871 15.7499C21.7683 15.1874 21.4636 15.1405 21.3543 14.8592C21.2527 14.492 21.2996 14.0702 21.5105 13.9452C21.698 13.7811 21.9168 13.7967 22.1277 13.9842C22.3621 14.1952 22.5652 14.6092 22.6277 14.9139C22.5886 15.0311 22.3152 14.8358 22.2371 14.8905C22.3874 15.0633 22.4874 15.2741 22.5261 15.4999C22.6824 16.1405 22.6355 16.3905 22.4793 16.8045C21.9636 17.8905 21.3074 18.2108 20.7293 18.617C20.7136 18.617 20.7058 18.8905 20.9168 19.0389C20.9949 19.117 21.2996 19.1561 21.6511 19.0389C22.4022 18.6218 23.0095 17.9873 23.3933 17.2186C23.4597 16.6337 23.3957 16.0414 23.2058 15.4842C22.9793 14.9608 22.7136 14.2186 22.7136 14.203C22.7058 13.8749 22.7293 13.7655 22.8699 13.6014ZM15.3855 10.5858C15.7136 10.742 16.3386 10.6717 16.3074 10.1405L16.2918 9.8983C16.2293 9.74205 16.0418 9.78111 16.0027 9.93736C15.9871 9.99205 16.0261 10.078 15.9793 10.1014C15.948 10.1327 15.8464 10.117 15.8464 9.96861C15.8464 9.92173 15.8152 9.87486 15.7918 9.84361C15.7761 9.82798 15.7605 9.82798 15.7214 9.82798C15.6746 9.82798 15.6746 9.8358 15.6511 9.87486C15.6433 9.91392 15.6277 9.95298 15.6277 9.99986C15.6277 10.0545 15.5964 10.0702 15.5652 10.078C15.5183 10.078 15.5261 10.078 15.4871 10.0624C15.4714 10.0389 15.448 10.0311 15.448 9.98423L15.4246 9.85923C15.4089 9.8358 15.3777 9.82017 15.3464 9.81236C15.1668 9.81236 15.1511 10.0233 15.1668 10.1014C15.1511 10.117 15.1433 10.4842 15.3855 10.5858Z" fill="white"/>
<path fill-rule="evenodd" clip-rule="evenodd" d="M25.034 14.664C25.3621 14.8202 26.1512 14.7343 25.9558 14.2265L25.9402 13.9765C25.8699 13.8202 25.6902 13.8593 25.6512 14.0234C25.6355 14.0702 25.6746 14.1562 25.6199 14.1796C25.5965 14.2109 25.4871 14.1952 25.4949 14.0546C25.4949 14.0077 25.4637 13.9531 25.4402 13.9218C25.4168 13.914 25.409 13.9062 25.3621 13.9062C25.323 13.9062 25.323 13.9218 25.2996 13.9609C25.284 13.9999 25.2762 14.039 25.2762 14.0859C25.2683 14.1327 25.2449 14.1484 25.2058 14.164C25.1668 14.164 25.1746 14.164 25.1433 14.1406C25.1199 14.1171 25.0965 14.1093 25.0965 14.0702L25.073 13.9452C25.0574 13.9218 25.0262 13.9062 24.9949 13.8984C24.8152 13.8984 24.7996 14.1015 24.8074 14.1796C24.7996 14.1952 24.7918 14.5702 25.0418 14.664H25.034ZM30.659 12.9765C30.9871 13.1327 31.6043 13.0624 31.5808 12.539L31.5652 12.289C31.4949 12.1327 31.3152 12.1718 31.2762 12.3281C31.2605 12.3827 31.2996 12.4687 31.2449 12.4999C31.2215 12.5234 31.1121 12.5077 31.1199 12.3593C31.1199 12.3124 31.0887 12.2656 31.0652 12.2343C31.0418 12.2187 31.034 12.2187 30.9871 12.2187C30.948 12.2187 30.948 12.2343 30.9246 12.2734L30.9012 12.3906C30.8933 12.4452 30.8699 12.4687 30.8308 12.4687C30.7918 12.4687 30.7996 12.4687 30.7683 12.4531C30.7449 12.4296 30.7215 12.4218 30.7215 12.3827C30.7215 12.3437 30.7137 12.2812 30.698 12.2499C30.6824 12.2265 30.6512 12.2187 30.6199 12.2109C30.4402 12.2109 30.4246 12.414 30.4324 12.4921C30.4246 12.5077 30.4168 12.8749 30.6668 12.9765H30.659ZM33.573 17.2187C33.0027 17.8671 33.2527 18.9374 33.3855 19.1718C33.573 19.5468 33.7215 19.789 34.0887 19.9765C34.4246 20.2187 34.6902 20.0702 34.8308 19.8984C35.1668 19.5468 35.1746 18.6484 35.3308 18.4765C35.4402 18.1484 35.7215 18.2031 35.8543 18.3515C35.9785 18.5279 36.1451 18.6702 36.3387 18.7656C36.6512 19.039 37.0262 19.0937 37.4012 18.8437C37.6512 18.6952 37.8152 18.5156 37.9637 18.1484C38.1199 17.7109 38.0418 15.6796 38.0027 14.4765L37.6746 12.7968C37.6746 12.7812 37.6355 11.9999 37.5965 11.8202C37.5965 11.7421 37.573 11.7187 37.6512 11.7265C37.7371 11.8046 37.7449 11.8046 37.8074 11.8281C37.8855 11.8437 37.9637 11.6952 37.909 11.5702L37.1277 10.1171C37.0652 10.0546 36.9793 9.99212 36.8777 10.1327C36.8178 10.187 36.7701 10.2534 36.7378 10.3274C36.7055 10.4015 36.6892 10.4816 36.6902 10.5624C36.7137 10.9062 36.7683 11.2577 36.7918 11.6015L37.1043 13.3671C37.2058 14.6171 37.2293 15.6484 37.3308 16.9062C37.3152 17.4374 37.1512 17.8984 36.9949 17.9687C36.9949 17.9687 36.7605 18.1015 36.6043 17.9531C36.4871 17.9062 36.0262 17.1796 36.0262 17.1796C35.7918 16.9687 35.6355 17.0234 35.4715 17.1796C35.0027 17.6327 34.7996 18.4609 34.4793 19.039C34.4012 19.1718 34.1668 19.2734 33.9168 19.0312C33.2762 18.1484 33.6512 16.8984 33.573 17.2187ZM30.8074 9.89837C31.1043 10.0156 31.3074 10.6171 31.2449 10.914C31.1824 11.2656 31.0262 11.6562 30.9168 11.6093C30.7918 11.5624 30.9949 11.2499 30.8777 10.9218C30.8152 10.7031 30.409 10.3124 30.4558 10.2031C30.3777 9.96087 30.6277 9.8515 30.8074 9.89056V9.89837Z" fill="white"/>
<path fill-rule="evenodd" clip-rule="evenodd" d="M34.5246 17.5781C34.5793 16.8593 34.4777 16.4218 34.4621 16C34.4465 15.5781 33.9856 12.3593 33.8918 12.0468C33.7746 11.4375 34.3371 11.9687 34.2746 11.6093C34.0793 11.1718 33.6027 10.5234 33.4543 10.1406C33.3606 9.98434 33.3996 9.82809 33.1965 10.1015C33.0216 10.5809 32.9601 11.0944 33.0168 11.6015C33.5012 14.125 33.9934 16.2187 33.9152 18.6172C34.1496 18.6172 34.4074 18.0937 34.5246 17.5781ZM39.5559 10.914C39.8293 11.0468 39.9856 11.7968 39.9543 12.0078C39.8996 12.3984 39.759 12.8203 39.6574 12.7656C39.5402 12.7187 39.6809 12.1875 39.6262 12.0234C39.5637 11.789 39.1965 11.3672 39.2356 11.2422C39.1574 10.9765 39.3918 10.8672 39.5559 10.914ZM19.5793 16.2187C19.8371 16.3203 19.9934 16.8672 19.9699 17.0234C19.9074 17.3125 19.7746 17.625 19.6731 17.5781C19.5715 17.5468 19.6965 17.1562 19.6496 17.0312C19.6262 16.7422 19.2668 16.5859 19.2746 16.4609C19.2121 16.2265 19.4309 16.1875 19.5871 16.2187H19.5793Z" fill="white"/>
<path fill-rule="evenodd" clip-rule="evenodd" d="M25.7992 17.0469C26.1273 17.0625 26.2913 17.3281 25.9867 17.4375C25.6742 17.5391 25.3851 17.625 25.3773 18.0625C25.4945 18.6875 25.221 18.4688 25.0648 18.3906C24.8773 18.25 24.346 17.9219 24.2679 17.2188C24.2601 17.0547 24.3929 16.9062 24.6038 16.9062C24.9163 16.9922 25.3851 17 25.7992 17.0469Z" fill="#1B9D00"/>
<path fill-rule="evenodd" clip-rule="evenodd" d="M12.7124 9.71881C13.0874 9.82818 13.1109 10.3907 13.0874 10.5547C13.0327 10.8516 12.8999 11.1719 12.8062 11.1329C12.6968 11.0938 12.8062 10.6876 12.7515 10.5626C12.6968 10.3907 12.3765 10.0626 12.4077 9.96881C12.3374 9.77349 12.564 9.67974 12.7124 9.71881ZM20.2046 12.3438C19.9077 12.5001 19.7984 12.9688 19.978 13.2501C20.1499 13.4844 20.4155 13.3985 20.4468 13.3985C20.7359 13.4297 20.9077 12.8594 20.9077 12.8594C20.9077 12.8594 20.9155 12.7032 20.5796 13.0079C20.4312 13.0313 20.4234 12.9766 20.3843 12.8985C20.3485 12.7498 20.3622 12.5934 20.4234 12.4532C20.478 12.3126 20.3687 12.2501 20.2046 12.3438ZM22.3921 9.50006C22.2359 9.60162 21.9468 9.90631 21.939 10.2501C21.9312 10.4454 21.8921 10.4454 22.0171 10.5626C22.1187 10.7032 22.2046 10.6954 22.3921 10.5938C22.4388 10.5644 22.4789 10.5256 22.5098 10.4799C22.5408 10.4341 22.5619 10.3825 22.5718 10.3282C22.6187 10.1094 22.3374 10.4376 22.3062 10.1876C22.2437 9.95318 22.4234 9.85943 22.5952 9.64068C22.5952 9.48443 22.5952 9.38287 22.3843 9.50006H22.3921ZM24.1421 9.81256C24.0732 10.097 24.0314 10.3874 24.0171 10.6797C23.9702 10.8985 24.2515 10.9922 24.3687 10.711C24.5562 10.2032 24.5562 9.98443 24.5718 9.77349C24.5171 9.43756 24.2905 9.44537 24.1421 9.81256ZM35.2359 15.461C35.2671 15.4219 36.7984 14.336 36.7984 14.336C36.9546 14.2813 36.9155 14.8985 36.8452 14.8907C36.3703 15.3484 35.8241 15.7257 35.228 16.0079C35.1499 16.0626 35.0796 15.5938 35.228 15.461H35.2359ZM36.6187 15.4454C36.8921 15.5782 37.0015 16.3672 36.9702 16.5782C36.9702 17.0001 36.7124 17.3282 36.603 17.2813C36.4937 17.2266 36.6187 16.7579 36.564 16.5938C36.5015 16.3594 36.2749 15.9297 36.314 15.8047C36.2359 15.5391 36.4546 15.3985 36.6265 15.4454H36.6187ZM27.5562 18.836C27.6829 18.6881 27.8302 18.5591 27.9937 18.4532C28.1499 18.3751 28.2905 18.5157 28.2827 18.5079C28.3062 18.6641 28.189 18.7969 28.228 19.0001C28.2593 19.0782 28.2827 19.1719 28.4312 19.1407C28.6734 18.9454 28.8999 18.9297 29.1343 18.9219C29.3296 18.9297 29.3374 19.2501 29.2124 19.2501C28.7671 19.3438 28.5718 19.4688 28.2515 19.586C28.0952 19.6797 27.9702 19.5626 27.9702 19.5547C27.9702 19.5469 27.8843 19.4688 27.939 19.2657C27.9546 19.1094 27.8921 19.0157 27.7515 19.0313C27.6577 19.0938 27.564 19.1251 27.5171 19.0079C27.4937 18.9297 27.4859 18.8829 27.5562 18.836ZM38.228 19.2579C38.2905 19.336 38.3374 19.4141 38.2202 19.5547L37.9312 19.8047C37.8843 19.8829 37.853 20.0235 38.0093 20.0626C38.2905 20.1407 38.9468 19.711 38.9468 19.7032C39.0562 19.6251 39.0249 19.4688 39.0093 19.4688C38.9468 19.3985 38.8062 19.4454 38.7124 19.4297C38.6655 19.4297 38.5171 19.4141 38.5874 19.2735C38.6399 19.2045 38.682 19.1281 38.7124 19.0469C38.7515 18.9532 38.7124 18.8907 38.5562 18.836C38.3921 18.8047 38.3218 18.8204 38.1421 18.836C38.0483 18.8516 38.0171 18.8985 37.9937 19.0157C38.0015 19.1954 38.1109 19.1876 38.228 19.2501V19.2579Z" fill="white"/>
<path fill-rule="evenodd" clip-rule="evenodd" d="M27.6119 14.8206C27.5729 14.8987 27.4323 14.8987 27.2994 14.8206C27.1666 14.7425 27.0885 14.6175 27.1354 14.5472C27.1823 14.4768 27.3151 14.4768 27.4479 14.5472C27.5807 14.6175 27.651 14.7503 27.6119 14.8206ZM20.6588 10.6331C20.5807 10.6565 20.4713 10.5862 20.4244 10.4768C20.3776 10.3675 20.401 10.2737 20.4791 10.2503C20.5573 10.2268 20.6588 10.305 20.7135 10.4065C20.7682 10.5081 20.7369 10.6175 20.651 10.6409L20.6588 10.6331Z" fill="#259F00"/>
<path fill-rule="evenodd" clip-rule="evenodd" d="M34.4151 29.2969C35.1494 29.3281 35.8369 29.2969 36.5635 29.3359C36.6963 29.4531 36.6026 29.7266 36.5166 29.7109L35.9073 29.6875C35.8994 29.4531 35.3057 29.4922 35.3213 29.6953C35.001 29.7344 34.7119 29.6875 34.3838 29.6719C34.2901 29.5547 34.3057 29.3438 34.4151 29.2969Z" fill="#209000"/>
</g>
<defs>
<clipPath id="clip0_66_167">
<rect width="53.3333" height="40" fill="white"/>
</clipPath>
</defs>
</svg>
