<svg width="47" height="47" viewBox="0 0 47 47" fill="none" xmlns="http://www.w3.org/2000/svg">
<rect width="47" height="47" rx="3" fill="#E3D5FD"/>
<path d="M28.0038 18.0077C26.3751 18.0076 24.7851 18.5044 23.4462 19.4317C22.1073 20.3591 21.0833 21.6729 20.5108 23.1977L22.3848 23.9007C22.8798 22.5861 23.8202 21.4868 25.0422 20.7941C26.2643 20.1015 27.6906 19.8594 29.0727 20.11C30.4549 20.3607 31.7054 21.0881 32.6064 22.1658C33.5074 23.2434 34.0019 24.603 34.0038 26.0077C34.0038 27.599 33.3716 29.1251 32.2464 30.2503C31.1212 31.3755 29.5951 32.0077 28.0038 32.0077H18.0038C16.587 32.0086 15.2156 31.5081 14.1325 30.5949C13.0493 29.6816 12.3243 28.4146 12.0857 27.018C11.8471 25.6215 12.1104 24.1856 12.829 22.9645C13.5476 21.7435 14.6751 20.8162 16.0118 20.3467C15.9261 18.6193 16.483 16.9214 17.575 15.5802C18.667 14.2391 20.2169 13.3496 21.9258 13.0834C23.6347 12.8172 25.3816 13.1931 26.8298 14.1385C28.278 15.084 29.325 16.5321 29.7688 18.2037C29.1895 18.0733 28.5976 18.0075 28.0038 18.0077Z" fill="#3A187B"/>
</svg>
