<svg width="47" height="47" viewBox="0 0 47 47" fill="none" xmlns="http://www.w3.org/2000/svg">
<rect width="47" height="47" rx="3" fill="#E3D5FD"/>
<path d="M14 17H32C32.2652 17 32.5196 17.1054 32.7071 17.2929C32.8946 17.4804 33 17.7348 33 18V34C33 34.2652 32.8946 34.5196 32.7071 34.7071C32.5196 34.8946 32.2652 35 32 35H14C13.7348 35 13.4804 34.8946 13.2929 34.7071C13.1054 34.5196 13 34.2652 13 34V18C13 17.7348 13.1054 17.4804 13.2929 17.2929C13.4804 17.1054 13.7348 17 14 17ZM31 24H15V33H31V24ZM26 20V22H30V20H26Z" fill="#3A187B"/>
</svg>
