<svg width="139" height="22" viewBox="0 0 139 22" fill="none" xmlns="http://www.w3.org/2000/svg">
<path d="M12.5083 15.592H5.52434L4.32434 19H1.46834L7.44434 2.296H10.6123L16.5883 19H13.7083L12.5083 15.592ZM11.7403 13.36L9.02834 5.608L6.29234 13.36H11.7403ZM18.2747 12.376C18.2747 11.016 18.5467 9.824 19.0907 8.8C19.6507 7.76 20.4187 6.96 21.3947 6.4C22.3707 5.84 23.4907 5.56 24.7547 5.56C26.3547 5.56 27.6747 5.944 28.7147 6.712C29.7707 7.464 30.4827 8.544 30.8507 9.952H27.8987C27.6587 9.296 27.2747 8.784 26.7467 8.416C26.2187 8.048 25.5547 7.864 24.7547 7.864C23.6347 7.864 22.7387 8.264 22.0667 9.064C21.4107 9.848 21.0827 10.952 21.0827 12.376C21.0827 13.8 21.4107 14.912 22.0667 15.712C22.7387 16.512 23.6347 16.912 24.7547 16.912C26.3387 16.912 27.3867 16.216 27.8987 14.824H30.8507C30.4667 16.168 29.7467 17.24 28.6907 18.04C27.6347 18.824 26.3227 19.216 24.7547 19.216C23.4907 19.216 22.3707 18.936 21.3947 18.376C20.4187 17.8 19.6507 17 19.0907 15.976C18.5467 14.936 18.2747 13.736 18.2747 12.376ZM36.7693 8.008V15.328C36.7693 15.824 36.8813 16.184 37.1053 16.408C37.3453 16.616 37.7453 16.72 38.3053 16.72H39.9853V19H37.8253C36.5933 19 35.6493 18.712 34.9933 18.136C34.3373 17.56 34.0093 16.624 34.0093 15.328V8.008H32.4493V5.776H34.0093V2.488H36.7693V5.776H39.9853V8.008H36.7693ZM43.899 4.024C43.403 4.024 42.987 3.856 42.651 3.52C42.315 3.184 42.147 2.768 42.147 2.272C42.147 1.776 42.315 1.36 42.651 1.024C42.987 0.687999 43.403 0.519999 43.899 0.519999C44.379 0.519999 44.787 0.687999 45.123 1.024C45.459 1.36 45.627 1.776 45.627 2.272C45.627 2.768 45.459 3.184 45.123 3.52C44.787 3.856 44.379 4.024 43.899 4.024ZM45.243 5.776V19H42.507V5.776H45.243ZM54.5712 19.216C53.3232 19.216 52.1952 18.936 51.1872 18.376C50.1792 17.8 49.3872 17 48.8112 15.976C48.2352 14.936 47.9472 13.736 47.9472 12.376C47.9472 11.032 48.2432 9.84 48.8352 8.8C49.4272 7.76 50.2352 6.96 51.2592 6.4C52.2832 5.84 53.4272 5.56 54.6912 5.56C55.9552 5.56 57.0992 5.84 58.1232 6.4C59.1472 6.96 59.9552 7.76 60.5472 8.8C61.1392 9.84 61.4352 11.032 61.4352 12.376C61.4352 13.72 61.1312 14.912 60.5232 15.952C59.9152 16.992 59.0832 17.8 58.0272 18.376C56.9872 18.936 55.8352 19.216 54.5712 19.216ZM54.5712 16.84C55.2752 16.84 55.9312 16.672 56.5392 16.336C57.1632 16 57.6672 15.496 58.0512 14.824C58.4352 14.152 58.6272 13.336 58.6272 12.376C58.6272 11.416 58.4432 10.608 58.0752 9.952C57.7072 9.28 57.2192 8.776 56.6112 8.44C56.0032 8.104 55.3472 7.936 54.6432 7.936C53.9392 7.936 53.2832 8.104 52.6752 8.44C52.0832 8.776 51.6112 9.28 51.2592 9.952C50.9072 10.608 50.7312 11.416 50.7312 12.376C50.7312 13.8 51.0912 14.904 51.8112 15.688C52.5472 16.456 53.4672 16.84 54.5712 16.84ZM70.8118 5.56C71.8518 5.56 72.7798 5.776 73.5958 6.208C74.4278 6.64 75.0758 7.28 75.5398 8.128C76.0038 8.976 76.2358 10 76.2358 11.2V19H73.5238V11.608C73.5238 10.424 73.2278 9.52 72.6358 8.896C72.0438 8.256 71.2358 7.936 70.2118 7.936C69.1878 7.936 68.3718 8.256 67.7638 8.896C67.1718 9.52 66.8758 10.424 66.8758 11.608V19H64.1398V5.776H66.8758V7.288C67.3238 6.744 67.8918 6.32 68.5798 6.016C69.2838 5.712 70.0278 5.56 70.8118 5.56Z" fill="white"/>
<path d="M91.3898 7.288C91.3898 8.136 91.1898 8.936 90.7898 9.688C90.3898 10.44 89.7498 11.056 88.8698 11.536C87.9898 12 86.8618 12.232 85.4858 12.232H82.4618V19H79.7258V2.32H85.4858C86.7658 2.32 87.8458 2.544 88.7258 2.992C89.6218 3.424 90.2858 4.016 90.7178 4.768C91.1658 5.52 91.3898 6.36 91.3898 7.288ZM85.4858 10C86.5258 10 87.3018 9.768 87.8138 9.304C88.3258 8.824 88.5818 8.152 88.5818 7.288C88.5818 5.464 87.5498 4.552 85.4858 4.552H82.4618V10H85.4858ZM99.7352 19.216C98.4872 19.216 97.3592 18.936 96.3512 18.376C95.3432 17.8 94.5512 17 93.9752 15.976C93.3992 14.936 93.1112 13.736 93.1112 12.376C93.1112 11.032 93.4072 9.84 93.9992 8.8C94.5912 7.76 95.3992 6.96 96.4232 6.4C97.4472 5.84 98.5912 5.56 99.8552 5.56C101.119 5.56 102.263 5.84 103.287 6.4C104.311 6.96 105.119 7.76 105.711 8.8C106.303 9.84 106.599 11.032 106.599 12.376C106.599 13.72 106.295 14.912 105.687 15.952C105.079 16.992 104.247 17.8 103.191 18.376C102.151 18.936 100.999 19.216 99.7352 19.216ZM99.7352 16.84C100.439 16.84 101.095 16.672 101.703 16.336C102.327 16 102.831 15.496 103.215 14.824C103.599 14.152 103.791 13.336 103.791 12.376C103.791 11.416 103.607 10.608 103.239 9.952C102.871 9.28 102.383 8.776 101.775 8.44C101.167 8.104 100.511 7.936 99.8072 7.936C99.1032 7.936 98.4472 8.104 97.8392 8.44C97.2472 8.776 96.7752 9.28 96.4232 9.952C96.0712 10.608 95.8952 11.416 95.8952 12.376C95.8952 13.8 96.2552 14.904 96.9752 15.688C97.7112 16.456 98.6312 16.84 99.7352 16.84ZM110.696 4.024C110.2 4.024 109.784 3.856 109.448 3.52C109.112 3.184 108.944 2.768 108.944 2.272C108.944 1.776 109.112 1.36 109.448 1.024C109.784 0.687999 110.2 0.519999 110.696 0.519999C111.176 0.519999 111.584 0.687999 111.92 1.024C112.256 1.36 112.424 1.776 112.424 2.272C112.424 2.768 112.256 3.184 111.92 3.52C111.584 3.856 111.176 4.024 110.696 4.024ZM112.04 5.776V19H109.304V5.776H112.04ZM122.304 5.56C123.344 5.56 124.272 5.776 125.088 6.208C125.92 6.64 126.568 7.28 127.032 8.128C127.496 8.976 127.728 10 127.728 11.2V19H125.016V11.608C125.016 10.424 124.72 9.52 124.128 8.896C123.536 8.256 122.728 7.936 121.704 7.936C120.68 7.936 119.864 8.256 119.256 8.896C118.664 9.52 118.368 10.424 118.368 11.608V19H115.632V5.776H118.368V7.288C118.816 6.744 119.384 6.32 120.072 6.016C120.776 5.712 121.52 5.56 122.304 5.56ZM134.41 8.008V15.328C134.41 15.824 134.522 16.184 134.746 16.408C134.986 16.616 135.386 16.72 135.946 16.72H137.626V19H135.466C134.234 19 133.29 18.712 132.634 18.136C131.978 17.56 131.65 16.624 131.65 15.328V8.008H130.09V5.776H131.65V2.488H134.41V5.776H137.626V8.008H134.41Z" fill="#131313"/>
<circle cx="99.5" cy="13.5" r="2.5" fill="white"/>
</svg>
