<svg width="48" height="48" viewBox="0 0 48 48" fill="none" xmlns="http://www.w3.org/2000/svg">
<rect x="0.5" y="0.5" width="47" height="47" rx="3" fill="#E3D5FD"/>
<g clip-path="url(#clip0_44_43)">
<path d="M28.584 26.8119C29.5244 25.8183 30.153 24.5709 30.3922 23.2239C30.6314 21.8769 30.4706 20.4893 29.9297 19.2327C29.3888 17.9761 28.4916 16.9055 27.3489 16.1533C26.2062 15.4011 24.8681 15.0002 23.5 15.0002C22.1319 15.0002 20.7938 15.4011 19.6511 16.1533C18.5084 16.9055 17.6112 17.9761 17.0703 19.2327C16.5294 20.4893 16.3686 21.8769 16.6078 23.2239C16.847 24.5709 17.4756 25.8183 18.416 26.8119C18.9557 25.9508 19.7054 25.2409 20.5947 24.749C21.484 24.2571 22.4837 23.9994 23.5 23.9999C24.5163 23.9994 25.516 24.2571 26.4053 24.749C27.2946 25.2409 28.0443 25.9508 28.584 26.8119ZM23.5 34.7279L17.136 28.3639C15.8773 27.1052 15.0202 25.5016 14.6729 23.7558C14.3257 22.0099 14.5039 20.2004 15.1851 18.5558C15.8663 16.9113 17.0198 15.5057 18.4999 14.5168C19.9799 13.5278 21.72 13 23.5 13C25.28 13 27.0201 13.5278 28.5001 14.5168C29.9802 15.5057 31.1337 16.9113 31.8149 18.5558C32.4961 20.2004 32.6743 22.0099 32.3271 23.7558C31.9798 25.5016 31.1227 27.1052 29.864 28.3639L23.5 34.7279ZM23.5 22.9999C22.7044 22.9999 21.9413 22.6839 21.3787 22.1212C20.8161 21.5586 20.5 20.7956 20.5 19.9999C20.5 19.2043 20.8161 18.4412 21.3787 17.8786C21.9413 17.316 22.7044 16.9999 23.5 16.9999C24.2957 16.9999 25.0587 17.316 25.6213 17.8786C26.1839 18.4412 26.5 19.2043 26.5 19.9999C26.5 20.7956 26.1839 21.5586 25.6213 22.1212C25.0587 22.6839 24.2957 22.9999 23.5 22.9999Z" fill="#3A187B"/>
</g>
<defs>
<clipPath id="clip0_44_43">
<rect width="24" height="24" fill="white" transform="translate(11.5 11.5)"/>
</clipPath>
</defs>
</svg>
