<svg width="47" height="48" viewBox="0 0 47 48" fill="none" xmlns="http://www.w3.org/2000/svg">
<rect y="0.5" width="47" height="47" rx="3" fill="#E3D5FD"/>
<path d="M13 13.993C13.0018 13.7304 13.1069 13.479 13.2925 13.2932C13.4781 13.1074 13.7294 13.0021 13.992 13H32.008C32.556 13 33 13.445 33 13.993V30.007C32.9982 30.2696 32.8931 30.521 32.7075 30.7068C32.5219 30.8926 32.2706 30.9979 32.008 31H13.992C13.7288 30.9997 13.4765 30.895 13.2905 30.7088C13.1045 30.5226 13 30.2702 13 30.007V13.993ZM17 25V27H29V25H17ZM17 17V23H23V17H17ZM25 17V19H29V17H25ZM25 21V23H29V21H25ZM19 19H21V21H19V19Z" fill="#3A187B"/>
</svg>
