<svg width="47" height="48" viewBox="0 0 47 48" fill="none" xmlns="http://www.w3.org/2000/svg">
<rect y="0.5" width="47" height="47" rx="3" fill="#E3D5FD"/>
<path d="M23.414 16.5H32C32.2652 16.5 32.5196 16.6054 32.7071 16.7929C32.8946 16.9804 33 17.2348 33 17.5V31.5C33 31.7652 32.8946 32.0196 32.7071 32.2071C32.5196 32.3946 32.2652 32.5 32 32.5H14C13.7348 32.5 13.4804 32.3946 13.2929 32.2071C13.1054 32.0196 13 31.7652 13 31.5V15.5C13 15.2348 13.1054 14.9804 13.2929 14.7929C13.4804 14.6054 13.7348 14.5 14 14.5H21.414L23.414 16.5ZM19 20.5V25.404C19 26.296 19.446 27.128 20.187 27.623L23 29.498L25.813 27.623C26.1782 27.3794 26.4776 27.0494 26.6847 26.6623C26.8917 26.2752 27.0001 25.843 27 25.404V20.5H19ZM21 25.404V22.5H25V25.404C25 25.5138 24.9729 25.6219 24.9211 25.7187C24.8693 25.8156 24.7944 25.8981 24.703 25.959L23 27.094L21.297 25.959C21.2056 25.8981 21.1307 25.8156 21.0789 25.7187C21.0271 25.6219 21 25.5138 21 25.404Z" fill="#3A187B"/>
</svg>
