<svg width="47" height="47" viewBox="0 0 47 47" fill="none" xmlns="http://www.w3.org/2000/svg">
<rect width="47" height="47" rx="3" fill="#E3D5FD"/>
<path d="M17.32 18.112C17.4 16.512 17.96 15.28 19 14.416C20.056 13.536 21.44 13.096 23.152 13.096C24.32 13.096 25.32 13.304 26.152 13.72C26.984 14.12 27.608 14.672 28.024 15.376C28.456 16.064 28.672 16.848 28.672 17.728C28.672 18.736 28.408 19.592 27.88 20.296C27.368 20.984 26.752 21.448 26.032 21.688V21.784C26.96 22.072 27.68 22.584 28.192 23.32C28.72 24.056 28.984 25 28.984 26.152C28.984 27.112 28.76 27.968 28.312 28.72C27.88 29.472 27.232 30.064 26.368 30.496C25.52 30.912 24.496 31.12 23.296 31.12C21.488 31.12 20.016 30.664 18.88 29.752C17.744 28.84 17.144 27.496 17.08 25.72H20.344C20.376 26.504 20.64 27.136 21.136 27.616C21.648 28.08 22.344 28.312 23.224 28.312C24.04 28.312 24.664 28.088 25.096 27.64C25.544 27.176 25.768 26.584 25.768 25.864C25.768 24.904 25.464 24.216 24.856 23.8C24.248 23.384 23.304 23.176 22.024 23.176H21.328V20.416H22.024C24.296 20.416 25.432 19.656 25.432 18.136C25.432 17.448 25.224 16.912 24.808 16.528C24.408 16.144 23.824 15.952 23.056 15.952C22.304 15.952 21.72 16.16 21.304 16.576C20.904 16.976 20.672 17.488 20.608 18.112H17.32Z" fill="#3A187B"/>
</svg>
