<svg width="47" height="47" viewBox="0 0 47 47" fill="none" xmlns="http://www.w3.org/2000/svg">
<rect width="47" height="47" rx="3" fill="#E3D5FD"/>
<path d="M18.4374 27.208C19.9734 25.928 21.1974 24.864 22.1094 24.016C23.0214 23.152 23.7814 22.256 24.3894 21.328C24.9974 20.4 25.3014 19.488 25.3014 18.592C25.3014 17.776 25.1094 17.136 24.7254 16.672C24.3414 16.208 23.7494 15.976 22.9494 15.976C22.1494 15.976 21.5334 16.248 21.1014 16.792C20.6694 17.32 20.4454 18.048 20.4294 18.976H17.1654C17.2294 17.056 17.7974 15.6 18.8694 14.608C19.9574 13.616 21.3334 13.12 22.9974 13.12C24.8214 13.12 26.2214 13.608 27.1974 14.584C28.1734 15.544 28.6614 16.816 28.6614 18.4C28.6614 19.648 28.3254 20.84 27.6534 21.976C26.9814 23.112 26.2134 24.104 25.3494 24.952C24.4854 25.784 23.3574 26.792 21.9654 27.976H29.0454V30.76H17.1894V28.264L18.4374 27.208Z" fill="#3A187B"/>
</svg>
