<svg width="300" height="72" viewBox="0 0 300 72" fill="none" xmlns="http://www.w3.org/2000/svg">
<path d="M76.918 53.5781V5.95312H104.944V11.9447H82.7296V26.5778H102.688V32.5694H82.7296V47.5098H106.512V53.5013H76.918V53.5781Z" fill="#E43225"/>
<path d="M135.953 53.5779L126.318 40.9036L116.683 53.5779H109.877L123.03 36.6403L109.15 19.165H116.797L126.279 32.2619L135.915 19.165H143.409L130.256 36.6403L142.72 53.5779H135.953Z" fill="#E43225"/>
<path d="M152.087 48.47V71.9368H146.275V36.7942C146.275 27.8453 153.081 18.3203 163.672 18.3203C174.416 18.3203 182.522 25.1568 182.522 36.3717C182.522 47.3178 174.301 54.8456 164.972 54.8456C160.46 54.8456 154.343 52.8868 152.087 48.47ZM176.442 36.3717C176.442 28.6903 171.472 24.1582 162.716 24.5807C158.472 24.7343 151.972 27.8453 152.508 38.7914C152.661 42.3633 156.331 49.0461 164.399 49.0461C171.357 49.0461 176.442 45.0518 176.442 36.3717Z" fill="#E43225"/>
<path d="M187.492 53.5782V19.1653H193.304V22.8524C196.133 19.5878 200.53 18.4355 205.195 18.4355V24.6959C204.468 24.5423 197.548 23.6973 193.304 32.7999V53.6934H187.492V53.5782Z" fill="#E43225"/>
<path d="M206.762 36.3717C206.762 26.4242 213.835 18.3203 223.623 18.3203C235.782 18.3203 240.332 26.4242 240.332 36.7942V39.6363H213.147C213.567 46.1656 219.379 49.5838 224.77 49.4686C228.747 49.315 231.423 48.2012 234.252 45.359L238.076 49.3534C234.52 52.7716 230.008 55.0377 224.503 55.0377C214.103 54.8456 206.762 47.1642 206.762 36.3717ZM223.164 24.1582C217.659 24.1582 213.376 28.9975 213.109 34.2593H234.214C234.214 29.1128 230.544 24.1582 223.164 24.1582Z" fill="#E43225"/>
<path d="M243.277 48.7385L247.521 44.8977C247.368 44.8977 249.663 47.1638 249.93 47.3174C250.924 48.1623 251.918 48.7384 253.18 49.0073C256.851 50.0059 263.503 49.737 264.077 44.5905C264.345 41.7483 262.242 40.1736 259.833 39.1751C256.736 38.0228 253.333 37.6003 250.198 36.1793C246.642 34.6046 244.386 31.9161 244.386 27.9217C244.386 17.5518 259.106 15.8234 265.759 20.6628C266.027 20.9316 269.315 23.9274 269.162 23.9274L264.918 27.3456C262.777 24.7723 260.827 23.5049 256.277 23.5049C254.021 23.5049 250.886 24.5035 250.312 26.9231C249.471 30.3414 253.295 31.6088 255.818 32.3386C259.221 33.1835 262.892 33.7596 265.874 35.6032C269.965 38.1765 270.959 43.7071 269.43 47.9703C267.747 52.656 262.624 54.4995 258.112 54.6532C252.76 54.9988 248.095 53.3089 244.271 49.4682C243.966 49.4682 243.277 48.7385 243.277 48.7385Z" fill="#E43225"/>
<path d="M273.139 48.7385L277.383 44.8977C277.23 44.8977 279.524 47.1638 279.791 47.3174C280.786 48.1623 281.78 48.7384 283.041 49.0073C286.712 50.0059 293.365 49.737 293.938 44.5905C294.206 41.7483 292.103 40.1736 289.694 39.1751C286.597 38.0228 283.194 37.6003 280.059 36.1793C276.503 34.6046 274.247 31.9161 274.247 27.9217C274.247 17.5518 288.968 15.8234 295.621 20.6628C295.888 20.9316 299.176 23.9274 299.023 23.9274L294.779 27.3456C292.638 24.7723 290.688 23.5049 286.138 23.5049C283.883 23.5049 280.747 24.5035 280.174 26.9231C279.333 30.3414 283.156 31.6088 285.68 32.3386C289.082 33.1835 292.753 33.7596 295.735 35.6032C299.826 38.1765 300.821 43.7071 299.291 47.9703C297.609 52.656 292.485 54.4995 287.974 54.6532C282.583 54.922 277.918 53.2321 274.095 49.3914C273.865 49.4682 273.139 48.7385 273.139 48.7385Z" fill="#E43225"/>
<path d="M37.5355 53.5784L33.2914 42.2099H10.3507L6.10665 53.5784H0.0273438L18.4182 5.91504H25.071L43.3471 53.5784H37.5355ZM21.5534 12.7515L12.9124 36.372H30.8827L21.5534 12.7515Z" fill="#E43225"/>
<path d="M47.1699 53.5781V5.95312H53.1345V53.6165H47.1699V53.5781Z" fill="#E43225"/>
<path d="M62.043 53.578V19.8564H68.0076V53.578H62.043Z" fill="#E43225"/>
<path d="M73.6677 8.91048C73.6677 8.75685 73.6677 8.75686 73.6677 8.64163C73.6677 8.488 73.6677 8.488 73.6677 8.37278C69.156 8.21915 65.4473 4.53206 65.3326 0C65.1796 0 65.0649 0 64.912 0C64.759 0 64.6443 0 64.4914 0C64.3384 4.53206 60.6679 8.25756 56.1562 8.37278C56.1562 8.52641 56.1562 8.52641 56.1562 8.64163C56.1562 8.79526 56.1562 8.79526 56.1562 8.91048C60.6679 9.06411 64.3767 12.7512 64.4914 17.2833C64.6443 17.2833 64.759 17.2833 64.912 17.2833C65.0649 17.2833 65.1796 17.2833 65.3326 17.2833C65.4473 12.7512 69.1178 9.06411 73.6677 8.91048Z" fill="#E43225"/>
</svg>
